<svg height="96" viewBox="0 0 96 96" width="96" xmlns="http://www.w3.org/2000/svg" xmlns:xlink="http://www.w3.org/1999/xlink"><linearGradient id="a" x1="16.107416%" x2="72.708733%" y1="58.187048%" y2="72.889608%"><stop offset="0" stop-color="#ffd441"/><stop offset="1" stop-color="#ffb047"/></linearGradient><linearGradient id="b" x1="70.213094%" x2="100%" y1="65.796781%" y2="0%"><stop offset="0" stop-color="#ffd754"/><stop offset="1" stop-color="#ffb532"/></linearGradient><linearGradient id="c" x1="22.177886%" x2="22.177886%" y1="66.13799%" y2="9.316171%"><stop offset="0" stop-color="#ffd642"/><stop offset="0" stop-color="#ffd441"/><stop offset="1" stop-color="#ffb532"/></linearGradient><linearGradient id="d" x1="88.952957%" x2="12.578611%" y1="24.298487%" y2="6.966288%"><stop offset="0" stop-color="#ffd441"/><stop offset="1" stop-color="#ffa829"/></linearGradient><g fill="none" fill-rule="evenodd" transform="translate(23.5 16)"><g fill-opacity=".9"><path d="m40.0674322 58.6710411v-15.4936532h-15.3692872z" fill="#ffdf51"/><path d="m41.7920001 49.886284v-16.7570979h-16.6224354z" fill="#ff8900"/><path d="m31.6971609 43.1769842v16.7570978h16.6224353z" fill="url(#a)"/><path d="m38.3174258 34.2515078v-13.2542585h-13.1482649z" fill="#ffdf4f"/></g><path d="m44.5597476 31.0914827v-16.7570978h-16.6224354z" fill="url(#b)" fill-opacity=".95"/><path d="m16.2275331 0v16.7570978h16.6224353z" fill="url(#c)" fill-opacity=".95"/><path d="m20.126284 26.2460568v-16.75709782h-20.10064362l16.55056152 16.76053002z" fill="url(#d)"/><path d="m20.126284 59.8438359v-20.2728579h-20.10064362z" fill="#ffb700" fill-opacity=".9"/><path d="m20.1307255 43.0536278v-16.7570979h-16.62243527z" fill="#ffb700" fill-opacity=".8"/><path d="m25.168959 20.9968454v16.7570979h16.6226372z" fill="#ffcd25" fill-opacity=".9"/><path d="m20.0887319 22.8831293v-16.75709775h-16.62263727z" fill="#ff8900" fill-opacity=".9"/><path d="m24.698145 43.1769842v16.7570978h16.6226374z" fill="#ff8900" fill-opacity=".9"/></g></svg>