<svg height="96" viewBox="0 0 96 96" width="96" xmlns="http://www.w3.org/2000/svg"><path d="m39.8581855 46.474523h1.8077139c.5610174 0 1.0077468-.0748799 1.3402016-.224642s.5869867-.3644179.7636033-.6439739c.1766166-.2795559.2960907-.6240035.358426-1.0333533.0623353-.4093497.0935025-.8835893.0935025-1.4227328 0-.5391436-.0311672-1.0133832-.0935025-1.4227329-.0623353-.4093498-.1921985-.7587894-.3895935-1.0483295-.197395-.28954-.472705-.5041958-.8259382-.6439738s-.8207407-.2096659-1.4025366-.2096659h-1.6518765zm-3.179083-9.6471631h5.1114668c3.7401163 0 5.6101464 2.1754353 5.6101464 6.5263711 0 1.2907082-.2025865 2.3992434-.6077658 3.3256389-.4051793.9263954-1.1168296 1.6706233-2.1349724 2.2327058l3.4284228 10.1486632h-3.3660879l-3.0111723-9.6576869h-1.8509546v9.6576869h-3.179083zm13.2773468 0h4.7686243c.8726938 0 1.6414838.1144966 2.3063936.3434932.6649094.2289967 1.2674749.6349391 1.8077139 1.2178396.5402391.5829005.9142448 1.2646757 1.1220291 2.045346.2077844.7806703.3116749 1.8371616.3116749 3.1695056 0 .9784401-.0784656 1.678834-.1927469 2.3762329-.1142812.6973987-.4831177 1.9106174-1.9322668 2.7338081-.9063677.5148633-2.2072602.7000996-3.3916304.7000996h-1.6207088v9.647054h-3.1790829zm3.1790829 9.6471631h1.5272064c.6441312 0 1.142806-.0824298 1.496039-.2472919.3532333-.1648621.6129597-.3892543.7791872-.6731835.1662272-.2839291.2649232-.6273866.2960909-1.0303828s.0467513-.8517807.0467513-1.346367c0-.4579502-.0155836-.8929964-.0467513-1.3051516s-.1246691-.769351-.2805072-1.0715982c-.1558381-.3022471-.3999811-.5403777-.7324359-.7143988-.3324547-.1740211-.8103513-.2610303-1.433704-.2610303h-1.6518764zm19.6043449 7.6211776c0 .6869899-.129863 1.3427431-.3895933 1.9672793-.2597305.6245363-.6181529 1.1709973-1.075278 1.6393995-.4571255.4684022-.992162.8431183-1.6051255 1.1241596s-1.2726685.4215598-1.979135.4215598c-.6025741 0-1.2155287-.0832702-1.8388813-.2498132s-1.1843616-.4527845-1.6830438-.858733c-.4986823-.4059486-.90905-.9420008-1.2311156-1.6081728s-.483096-1.5092833-.483096-2.5293591v-12.2408491c0-.7286256.1246688-1.4051964.37401-2.0297327.2493411-.6245362.6025689-1.1657928 1.0596944-1.6237861.4571251-.4579932 1.0025507-.8170962 1.6362924-1.0773196.6337421-.2602234 1.3350032-.3903332 2.1038052-.3903332.7272448 0 1.4025334.1301098 2.025886.3903332.6233527.2602234 1.1635837.6245308 1.6207092 1.092933.4571251.4684021.8155475 1.0304763 1.075278 1.6862394.2597303.655763.3895933 1.3687645.3895933 2.1390259v1.2490662h-3.1790829v-1.0617063c0-.6245362-.176614-1.1657928-.529847-1.6237861-.3532333-.4579932-.8311299-.6869864-1.4337043-.6869864-.7895802 0-1.3142275.2446063-1.5739578.7338264-.2597302.4892201-.3895933 1.1085425-.3895933 1.857986v11.3665028c0 .6453541.1402522 1.1866107.420761 1.6237861.2805085.4371754.7843779.6557597 1.5116227.6557597.2077843 0 .4311488-.0364307.6701008-.1092932.238952-.0728626.4571219-.1925636.6545171-.3591066.1973949-.166543.3584253-.3955362.483096-.6869864.1246704-.2914503.1870048-.6557576.1870048-1.092933v-1.0929329h3.1790829zm6.2286951-6.1799152c0-.8115971-.6561252-1.4695265-1.4654964-1.4695265l-7.9394076-.0000001v2.9390528l6.4739113.0000002v3.2781743h-.9977209l2.4800707 3.5042553 2.4800707-3.5042553h-1.0314278zm-55.7538211 1.4977904v4.4010849c0 .9159865.1558358 1.7122583.4675122 2.3888392.3116763.6765809.7220441 1.2386551 1.2311155 1.6862394.5090713.4475843 1.0804694.7858697 1.7142113 1.0148663.633742.2289966 1.2726689.3434932 1.9168001.3434932.6441311 0 1.2830581-.1144966 1.9168-.3434932.633742-.2289966 1.20514-.567282 1.7142114-1.0148663s.9194391-1.0096585 1.2311155-1.6862394.4675122-1.4728527.4675122-2.3888392v-7.3338924l-5.6964328-.0086877-.007216 2.9407354h2.5245659l-.0000001 4.4018447c0 .7702614-.2129756 1.33754-.6389333 1.7018528s-.9298269.5464664-1.5116228.5464664-1.0856651-.1821536-1.5116228-.5464664-.6389334-.9315914-.6389334-1.7018528v-11.7412226c0-.7702613.2129757-1.3375399.6389334-1.7018527s.9298269-.5464665 1.5116228-.5464665 1.0856651.1821537 1.5116228.5464665.6389333.9315914.6389333 1.7018527v1.1241596h3.179083v-1.1241596c0-.8951686-.1558358-1.686236-.4675122-2.3732258-.3116764-.6869899-.7220441-1.2542685-1.2311155-1.7018528s-1.0804694-.7858697-1.7142114-1.0148663c-.6337419-.2289966-1.2726689-.3434932-1.9168-.3434932-.6441312 0-1.2830581.1144966-1.9168001.3434932-.6337419.2289966-1.20514.567282-1.7142113 1.0148663-.5090714.4475843-.9194392 1.0148629-1.2311155 1.7018528-.3116764.6869898-.4675122 1.4780572-.4675122 2.3732258v4.4010849h-3.2523306v-3.2781743h.9977208l-2.4800706-3.5042554-2.4800707 3.5042554h1.0314279v4.7477007c0 .8115971.6561251 1.4695264 1.4654963 1.4695264z" fill="#fff"/></svg>