<?xml version="1.0" encoding="UTF-8"?>
<svg width="1068px" height="703px" viewBox="0 0 1068 703" version="1.1" xmlns="http://www.w3.org/2000/svg" xmlns:xlink="http://www.w3.org/1999/xlink">
    <!-- Generator: Sketch 52.4 (67378) - http://www.bohemiancoding.com/sketch -->
    <title>illustration</title>
    <desc>Created with Sketch.</desc>
    <defs>
        <linearGradient x1="50%" y1="2.13150289%" x2="50%" y2="50%" id="linearGradient-1">
            <stop stop-color="#FFFFFF" stop-opacity="0" offset="0%"></stop>
            <stop stop-color="#000000" stop-opacity="0.1" offset="100%"></stop>
        </linearGradient>
        <path d="M123.98807,62.7595319 C115.412872,55.0464444 131.502948,47.1611645 152.833943,47.5334984 C174.164938,47.9058323 187.705833,55.0464444 179.130634,62.7595319 L123.98807,62.7595319 Z" id="path-2"></path>
    </defs>
    <g id="illustration" stroke="none" stroke-width="1" fill="none" fill-rule="evenodd">
        <path d="M534,702.18 C828.920056,702.18 1068,691.658692 1068,678.68 L1068,665.500776 C834.480543,658.620259 656.480543,655.18 534,655.18 C405.907097,655.18 227.907097,658.620259 -1.13686838e-13,665.500776 L-1.13686838e-13,678.056352 C-1.13686838e-13,691.035044 239.079944,702.18 534,702.18 Z" id="Oval" fill="#42465F"></path>
        <ellipse id="Oval" fill="#4C526D" cx="534" cy="665.68" rx="534" ry="23.5"></ellipse>
        <g id="window" transform="translate(240.243581, 101.820918)">
            <path d="M676.211283,27.1967191 L676.211283,549.945576 C676.211284,558.752708 670.877187,561.893729 664.294749,561.898832 L12.5190537,561.898832 C5.9339184,561.898832 0.595611483,557.751872 0.595611483,549.945576 L0.595611483,27.1967191 L676.211283,27.1967191 Z" id="Path" fill="#FFFFFF"></path>
            <path d="M112.188382,21.7263277 L112.188382,561.898832 L13.5358164,561.898832 C7.12846395,561.898832 0.595611483,558.861801 0.595611483,549.969875 L0.595611483,21.7724719 L112.188382,21.7263277 Z" id="Path" fill="#D7D9E1"></path>
            <path d="M676.211283,6.16271614 L676.211283,27.1967191 L0.595611483,27.1967191 L0.595611483,5.16271614 C0.595611483,1.80457243 3.2431148,0.286570794 6.50897565,0.286570794 L670.297919,0.286570794 C673.56378,0.286570794 676.211283,2.75297571 676.211283,6.16271614 Z" id="Path" fill="#EDEDF4"></path>
            <circle id="Oval" fill="#FA5959" opacity="0.8" cx="13.0465756" cy="13.53279" r="3.21315203"></circle>
            <circle id="Oval" fill="#FED253" opacity="0.8" cx="23.8827437" cy="13.53279" r="3.21315203"></circle>
            <circle id="Oval" fill="#8CCF4D" opacity="0.8" cx="34.7189118" cy="13.53279" r="3.21315203"></circle>
            <rect id="Rectangle" fill="#EDEDF4" x="202.681583" y="66.7024233" width="75.5090728" height="8.03288008"></rect>
            <rect id="Rectangle" fill="#EDEDF4" x="202.681583" y="89.9977755" width="404.136068" height="8.03288008"></rect>
            <rect id="Rectangle" fill="#EDEDF4" x="202.681583" y="113.293128" width="404.136068" height="8.03288008"></rect>
            <rect id="Rectangle" fill="#EDEDF4" x="202.681583" y="136.58848" width="404.136068" height="8.03288008"></rect>
            <rect id="Rectangle" fill="#EDEDF4" x="202.681583" y="159.883832" width="404.136068" height="8.03288008"></rect>
            <rect id="Rectangle" fill="#EDEDF4" x="202.681583" y="184.591662" width="404.136068" height="8.03288008"></rect>
            <rect id="Rectangle" fill="#EDEDF4" x="202.681583" y="207.887014" width="404.136068" height="8.03288008"></rect>
            <rect id="Rectangle" fill="#EDEDF4" x="202.681583" y="231.883832" width="404.136068" height="8.03288008"></rect>
            <rect id="Rectangle" fill="#EDEDF4" x="202.681583" y="256.591662" width="404.136068" height="8.03288008"></rect>
            <rect id="Rectangle" fill="#EDEDF4" x="202.681583" y="279.887014" width="404.136068" height="8.03288008"></rect>
            <path d="M597.335526,349.918123 C597.203657,350.057638 597.093213,350.215332 597.007686,350.386216 L592.964331,358.574006 C592.634959,359.247264 591.918852,359.652593 591.161213,359.594603 L589.865466,359.494845 C589.094875,359.440923 588.440368,358.920047 588.226268,358.190324 L586.977356,353.939118 C586.753668,353.176092 586.052269,352.643957 585.244762,352.624637 C584.437254,352.605318 583.710355,353.103282 583.449177,353.854708 L581.349442,359.901549 C581.094647,360.641422 580.387722,361.138708 579.593159,361.137007 L571.5767,361.137007 C570.667981,361.133452 569.895249,360.48417 569.750165,359.602276 L567.486511,345.674591 C567.363143,344.893017 566.740085,344.279438 565.945277,344.156802 C565.150469,344.034167 564.366162,344.430597 564.005166,345.137435 L552.398083,367.659615 C552.155838,368.131409 551.716814,368.476275 551.195278,368.604454 C550.673743,368.732632 550.121285,368.631442 549.681698,368.327223 L542.781455,363.538862 C542.001878,363.0008 540.935176,363.126507 540.307047,363.830461 L537.692136,366.800165 C537.615,366.887899 537.547011,366.983016 537.489187,367.084091 L530.510887,378.955236 C530.149246,379.576883 529.447699,379.929252 528.723381,379.853054 L524.469272,379.438676 C524.172063,379.410228 523.87225,379.452334 523.595033,379.561455 L519.785849,381.057818 C518.87007,381.397419 517.843689,380.976994 517.444137,380.098611 L516.608927,378.218565 C516.300784,377.529511 515.594189,377.096883 514.829226,377.128906 L510.473643,377.328421 C509.927706,377.351163 509.420801,377.612998 509.092033,378.042071 L507.858732,379.622844 C507.4453,380.153963 506.768705,380.419156 506.096971,380.313369 C505.425237,380.207581 504.866763,379.747885 504.642781,379.116383 L503.08164,374.780767 C502.886346,374.233637 502.437372,373.810849 501.872943,373.642566 C501.308514,373.474283 500.69629,373.580676 500.224753,373.928991 L492.809333,379.392634 L484.613343,385.892221 C484.041073,386.343956 483.251917,386.422137 482.599471,386.091736 L476.237822,382.845779 C475.896401,382.673815 475.509355,382.609505 475.129412,382.661612 L462.242193,384.434226 C461.477203,384.5357 460.855748,385.091657 460.681052,385.830831 L458.393981,395.599395 C458.248961,396.219269 457.785061,396.719619 457.170625,396.918874 C456.556189,397.11813 455.88051,396.987333 455.388784,396.573949 C454.954885,396.210123 454.375046,396.062374 453.816005,396.173189 C453.256964,396.284004 452.780672,396.641104 452.524091,397.1418 L450.767807,400.602619 C450.500591,401.121196 450.000008,401.485303 449.41742,401.584847 L445.428705,402.237107 C445.171707,402.281132 444.927022,402.377873 444.71058,402.521033 L438.426988,406.634112 C438.124704,406.833976 437.768731,406.940831 437.40444,406.941058 L434.46169,406.941058 C433.722393,406.942402 433.053268,406.510906 432.760046,405.843726 L431.979475,404.009722 C431.778628,403.560598 431.401723,403.210299 430.934324,403.038351 C430.466926,402.866403 429.948688,402.887393 429.497261,403.096557 L422.675075,406.235082 C422.116591,406.492844 421.464372,406.461216 420.934403,406.150672 L417.812121,404.301321 C417.524331,404.131748 417.195347,404.041615 416.859825,404.040416 L409.967388,404.040416 C409.603238,404.041563 409.247531,404.148339 408.944841,404.347363 L402.068015,408.836451 C401.529093,409.188209 400.842415,409.237675 400.257091,408.966903 L397.134809,407.516582 C396.387397,407.173237 395.499053,407.357916 394.957018,407.969328 L393.473934,409.634511 C393.080213,410.082295 392.488754,410.312676 391.889909,410.251511 C391.291064,410.190346 390.760413,409.845354 390.468737,409.327565 L390.023812,408.5602 C389.78014,408.131909 389.370749,407.818603 388.888624,407.69144 C388.406499,407.564278 387.892561,407.634053 387.463541,407.884918 L382.054188,411.03879 C381.483797,411.360717 380.782431,411.360717 380.212041,411.03879 L377.97961,409.818679 C377.468519,409.535634 376.850552,409.509964 376.316995,409.749616 L374.193843,410.70115 C373.710929,410.913988 373.158786,410.915175 372.67493,410.704416 C372.191073,410.493657 371.82104,410.090787 371.656989,409.596143 L370.283185,405.575148 C370.042697,404.817412 369.326496,404.303368 368.519096,404.308994 L366.520835,404.308994 C366.206359,404.310183 365.896989,404.230843 365.623179,404.078785 L357.950171,399.942684 C357.312227,399.603712 356.531964,399.660643 355.951911,400.088484 L350.323998,404.232258 C350.004346,404.467948 349.615153,404.594586 349.215588,404.59292 L342.135813,404.59292 C341.771522,404.593146 341.41555,404.700002 341.113266,404.899866 L339.786296,405.766989 C339.344701,406.057982 338.797107,406.148148 338.283163,406.014492 C337.769219,405.880836 337.338604,405.536277 337.101134,405.068686 L336.7811,404.44712 C336.471294,403.826718 335.829312,403.433755 335.12629,403.434198 L331.574695,403.434198 C331.003351,403.435306 330.464584,403.695884 330.115028,404.140174 L327.913819,406.910364 C327.543574,407.376549 326.965856,407.636622 326.364953,407.607619 C325.764051,407.578617 325.215025,407.264162 324.893011,406.764564 L324.268555,405.805357 C323.732802,404.969529 322.614494,404.710045 321.755118,405.222159 L319.928583,406.296471 C319.293056,406.669974 318.492599,406.636809 317.891294,406.212061 L310.530515,400.970954 C310.398879,400.879482 310.257552,400.802295 310.109007,400.740744 L304.356202,398.5691 C303.425673,398.236199 302.3935,398.682673 302.014491,399.582022 L298.010164,409.174092 C297.952164,409.309013 297.912786,409.450956 297.893079,409.596143 L296.597332,418.236679 C296.540107,418.602209 296.371347,418.942047 296.113378,419.211234 L293.373575,422.104202 C292.789407,422.710996 291.861908,422.852973 291.117727,422.449516 L286.364053,419.855821 C285.885249,419.592267 285.312136,419.551284 284.799577,419.743948 C284.287017,419.936611 283.887915,420.343034 283.710113,420.853396 L280.697111,429.516953 C280.628821,429.706669 280.594488,429.906584 280.595637,430.107825 L280.595637,435.571468 C280.593891,436.29547 280.155481,436.949495 279.479421,437.236651 L274.64769,439.339233 C274.103098,439.569916 273.479025,439.529966 272.969463,439.231801 L269.332005,437.12922 C268.969519,436.920541 268.545584,436.839353 268.129926,436.89901 L261.752665,437.796828 C261.006485,437.901706 260.270592,437.549103 259.894908,436.906684 L258.81772,435.095701 C258.585227,434.705155 258.211873,434.414812 257.771756,434.282294 L254.875839,433.392149 C254.186234,433.176339 253.431978,433.377473 252.94783,433.906284 L248.927892,438.295615 C248.610782,438.63991 248.173054,438.853701 247.702397,438.894161 L241.770061,439.385275 C241.495058,439.400498 241.227604,439.479377 240.989491,439.615484 L230.646932,445.46281 C229.986392,445.831412 229.164136,445.767595 228.570614,445.301663 L225.635669,442.999566 C225.306924,442.743099 224.900101,442.602579 224.480425,442.600536 L213.365101,442.600536 C212.802704,442.602547 212.270449,442.350821 211.921046,441.917581 L209.118798,438.479783 C208.778891,438.063904 208.270381,437.81572 207.727915,437.800948 C207.185449,437.786175 206.663743,438.006304 206.300938,438.403047 L202.928874,442.086401 C202.62367,442.419097 202.454119,442.850833 202.452726,443.298839 L202.452726,489.064521 C202.452726,490.068938 203.280978,490.883178 204.302678,490.883178 L605.30515,490.883178 C605.797144,490.883182 606.268873,490.690521 606.616032,490.347796 C606.96319,490.00507 607.157178,489.540514 607.155102,489.056848 L607.045823,344.53889 C607.056988,343.78996 606.601871,343.11025 605.897716,342.824214 C605.193562,342.538177 604.383136,342.703807 603.853289,343.242042 L597.335526,349.918123 Z" id="Path" fill="#D3E8E1"></path>
            <path d="M597.452629,410.280623 C597.24058,410.414758 597.053367,410.580587 596.898425,410.771527 L593.143888,415.424119 C592.681993,415.983409 591.961481,416.299751 591.208077,416.274042 L589.982584,416.215426 C589.124966,416.175239 588.363002,415.688997 588.007744,414.955196 L587.227175,413.394563 C586.8714,412.646611 586.091896,412.154987 585.219709,412.128477 C584.347522,412.101967 583.535768,412.545225 583.129188,413.270005 L581.56805,416.076215 C581.171016,416.777704 580.392617,417.214968 579.546376,417.211887 L571.803132,417.211887 C570.752322,417.216287 569.835469,416.543552 569.586316,415.585311 L567.728562,408.602759 C567.517653,407.808832 566.844281,407.196479 565.992217,407.02376 C565.140154,406.85104 564.257583,407.147991 563.716437,407.789471 L552.554301,421.036538 C551.906345,421.811746 550.776883,422.06922 549.822309,421.659326 L542.64888,418.618655 C541.883544,418.282504 540.983109,418.369842 540.307173,418.84579 L537.739101,420.626231 C537.616279,420.712266 537.503742,420.810531 537.403457,420.919307 L530.628118,427.960475 C530.166478,428.45723 529.487297,428.727366 528.785975,428.693167 L524.360149,428.429398 C524.119008,428.415822 523.877051,428.435571 523.642025,428.488013 L519.653318,429.447839 C518.721436,429.67622 517.737202,429.330138 517.194526,428.583263 L516.741796,427.953148 C516.301933,427.351975 515.567005,427.001531 514.790373,427.02263 L510.34113,427.147187 C509.827738,427.155216 509.333489,427.331459 508.943911,427.645418 L507.851115,428.502667 C507.327153,428.915532 506.633809,429.086555 505.961303,428.968815 C505.288798,428.851075 504.707754,428.456936 504.377583,427.894533 L503.222341,425.930919 C502.637625,424.934418 501.326265,424.539108 500.232761,425.029708 L492.747105,428.407417 L484.465268,432.422568 C483.919334,432.686154 483.282981,432.731085 482.701182,432.547125 L476.105374,430.495588 C475.808708,430.404092 475.495542,430.369216 475.184303,430.393012 L462.414194,431.411453 C461.53064,431.497256 460.774872,432.044923 460.462771,432.825548 L458.612823,437.675968 C458.386684,438.265771 457.897214,438.733338 457.272927,438.955904 C456.64864,439.178469 455.951904,439.133799 455.365656,438.833621 L455.287599,438.796986 C454.308068,438.286969 453.078675,438.523365 452.391688,439.353832 L450.93983,441.097638 C450.554295,441.551619 449.993074,441.843992 449.378692,441.910926 L445.382179,442.313906 C445.156843,442.335164 444.935984,442.386992 444.726501,442.467772 L438.396086,445.010212 C438.111242,445.120185 437.806426,445.177409 437.498432,445.178731 L434.454213,445.178731 C433.698109,445.178431 432.991028,444.827377 432.565236,444.240886 L432.128117,443.640078 C431.565567,442.869416 430.536642,442.528715 429.583462,442.797483 L422.48809,444.812385 C422.001323,444.949948 421.479673,444.931909 421.005009,444.761097 L417.711008,443.574136 C417.462176,443.482094 417.197844,443.43247 416.930439,443.427598 L409.858484,443.427598 C409.552038,443.427221 409.248908,443.487123 408.968635,443.603444 L401.943514,446.402326 C401.449849,446.602383 400.896437,446.630953 400.382376,446.482922 L396.908844,445.508442 C396.22318,445.316477 395.481363,445.43569 394.902782,445.830827 L393.380672,446.878576 C392.425328,447.534484 391.094675,447.397821 390.313036,446.563519 L390.086671,446.32173 C389.458034,445.648147 388.450001,445.411596 387.557628,445.72825 L381.898503,447.757806 C381.394347,447.930303 380.84152,447.930303 380.337365,447.757806 L377.855155,446.922537 C377.40186,446.775566 376.91142,446.762778 376.450131,446.885903 L374.108424,447.523345 C373.050484,447.809699 371.925337,447.347832 371.431072,446.424307 L370.556835,444.775751 C370.168187,444.049714 369.377373,443.59073 368.511744,443.58879 L366.482265,443.58879 C366.216764,443.59299 365.952547,443.553308 365.701696,443.471559 L357.825755,440.877831 C357.253961,440.685798 356.623945,440.717479 356.07728,440.965754 L350.324487,443.559482 C350.014615,443.69761 349.676197,443.770147 349.333164,443.771963 L342.066067,443.771963 C341.758072,443.773285 341.453257,443.830509 341.168413,443.940482 L339.685332,444.541289 C338.731476,444.921163 337.624752,444.653947 336.984563,443.889194 C336.552317,443.36627 335.886566,443.060575 335.181449,443.061252 L331.512774,443.061252 C330.983917,443.060598 330.47105,443.231421 330.060916,443.544829 L327.929963,445.186058 C327.021873,445.891939 325.689382,445.828287 324.862327,445.03952 L324.378374,444.585251 C323.739572,443.98162 322.781267,443.789069 321.935193,444.094347 L319.812045,444.863674 C319.231419,445.06691 318.588644,445.045833 318.024542,444.805058 L310.554497,441.551907 C310.42263,441.492761 310.283762,441.448491 310.140795,441.420022 L304.278722,440.064543 C303.330556,439.842133 302.33712,440.213953 301.812124,440.987734 L298.127839,446.380346 C297.986932,446.587483 297.884031,446.815335 297.823417,447.054422 L296.707203,451.633745 C296.573541,452.156672 296.240288,452.615463 295.77052,452.923283 L293.335145,454.491243 C292.733738,454.880304 291.969289,454.973068 291.282249,454.740358 L286.270996,453.069821 C285.187175,452.710577 283.987677,453.162202 283.468753,454.124897 L280.83043,458.755509 C280.656961,459.067728 280.565942,459.414497 280.565036,459.766624 L280.565036,461.854795 C280.560889,462.818327 279.875564,463.662084 278.886813,463.920986 L274.500015,465.063985 C274.034617,465.187622 273.539148,465.167066 273.087185,465.00537 L269.262397,463.64989 C268.939472,463.533209 268.59221,463.488076 268.247658,463.518006 L261.65185,464.082178 C260.939124,464.147134 260.235685,463.891712 259.755067,463.393448 L258.974498,462.58016 C258.64947,462.238033 258.213182,462.006225 257.733393,461.920738 L254.728203,461.349238 C254.107665,461.238724 253.465881,461.368192 252.948506,461.708257 L248.991021,464.353274 C248.636976,464.586889 248.220888,464.723841 247.788944,464.748928 L241.723923,465.049331 C241.494567,465.062752 241.268473,465.107171 241.052634,465.181216 L230.522758,468.844675 C229.926268,469.057025 229.26149,469.019691 228.696227,468.742098 L225.652008,467.276714 C225.330512,467.122766 224.974765,467.042422 224.613851,467.042253 L213.295601,467.042253 C212.772942,467.042212 212.266065,466.874135 211.859354,466.566003 L209.119557,464.507139 C208.321704,463.907548 207.196883,463.877638 206.364148,464.43387 L203.429209,466.397484 C202.827,466.801663 202.469499,467.453713 202.469109,468.148617 L202.469109,488.744583 C202.469109,489.93022 203.493064,490.891369 204.756176,490.891369 L604.868035,490.891369 C606.131147,490.891369 607.155102,489.93022 607.155102,488.744583 L607.045822,408.317009 C607.05704,407.521049 606.598124,406.784607 605.853503,406.403641 C605.108883,406.022676 604.200815,406.059738 603.494233,406.499934 L597.452629,410.280623 Z" id="Path" fill="#C1DED5"></path>
        </g>
        <g id="phone" transform="translate(152.483642, 171.000000)">
            <rect id="Rectangle" fill="#3F3D56" x="243.844844" y="113.452145" width="7.3105726" height="60.2856336" rx="2.29"></rect>
            <rect id="Rectangle" fill="#3F3D56" x="0.759441496" y="66.2276897" width="4.1055495" height="19.8470346" rx="1.5"></rect>
            <rect id="Rectangle" fill="#3F3D56" x="0.610535555" y="102.560739" width="4.62317491" height="34.5461782" rx="1.69"></rect>
            <rect id="Rectangle" fill="#3F3D56" x="0.681443146" y="149.189571" width="4.40336138" height="34.8439901" rx="1.61"></rect>
            <rect id="Rectangle" fill="#3F3D56" x="3.08521047" y="0.638168316" width="244.702095" height="497.324569" rx="30"></rect>
            <rect id="Rectangle" fill="#36334A" x="101.831121" y="15.4862178" width="34.170368" height="6.94185313" rx="2.54"></rect>
            <circle id="Oval" fill="#36334A" cx="145.106024" cy="18.9606898" r="3.93537128"></circle>
            <path d="M231.907552,33.021665 L231.907552,465.557968 C231.903637,476.289279 223.203092,484.986649 212.471781,484.986648 L36.862042,484.986648 C26.1307308,484.986649 17.4301865,476.289279 17.4262714,465.557968 L17.4262714,33.021665 C17.4262714,22.2875853 26.1279623,13.5858944 36.862042,13.5858944 L63.1403951,13.5858944 L63.1403951,16.9610957 C63.1560342,25.7898445 70.3154765,32.9397705 79.1442383,32.9436666 L168.487803,32.9436666 C172.732286,32.9436666 176.802926,31.2575523 179.804229,28.2562495 C182.805531,25.2549467 184.491646,21.1843065 184.491646,16.9398234 L184.491646,13.5858944 L212.507235,13.5858944 C223.227466,13.6054497 231.90757,22.3014156 231.907552,33.021665 Z" id="Path" fill="#FFFFFF"></path>
            <path d="M231.907552,296.719904 L231.907552,443.803519 L230.379817,443.803519 L230.379817,443.952425 L17.4262714,443.952425 L17.4262714,264.258409 C18.7920803,262.688988 20.1766632,261.060477 21.5800201,259.372876 C51.487011,223.401455 92.1374267,213.935292 123.600313,212.942586 C145.157565,212.23351 166.616254,216.72196 187.103387,225.635044 C197.924255,230.343308 214.982786,235.987746 231.907552,236.498281 C231.907552,276.64603 231.907552,296.719904 231.907552,296.719904 Z" id="Path" fill="#D3E8E1"></path>
            <path d="M231.907552,296.719904 L231.907552,443.803519 L17.4262714,443.803519 L17.4262714,347.454285 C25.0649449,345.518508 35.7309268,338.073211 49.4171769,317.502919 C65.785763,292.890894 88.0259194,286.417031 105.239336,285.736318 C117.031758,285.268328 128.774899,288.317354 139.98298,294.422498 C152.592071,301.279262 176.895022,309.547087 195.361603,285.544868 C215.778334,259.004157 226.634403,280.89333 230.379817,291.621648 C231.414734,294.592676 231.907552,296.719904 231.907552,296.719904 Z" id="Path" fill="#C1DED5"></path>
            <rect id="Rectangle" fill="#A8D0C4" x="39.1594479" y="423.956485" width="171.596369" height="39.7082508" rx="12"></rect>
        </g>
        <g id="react-logo" transform="translate(214.000000, 119.000000)" fill="#53C1DE">
            <path d="M511.57,180.15 C504.956667,177.883333 498.29,175.783333 491.57,173.85 C492.676667,169.323333 493.706667,164.773333 494.66,160.2 C509.8,86.69 499.9,27.47 466.09,7.98 C433.67,-10.72 380.65,8.78 327.09,55.37 C321.81,59.9833333 316.653333,64.7166667 311.62,69.57 C308.24,66.3366667 304.806667,63.1666667 301.32,60.06 C245.21,10.23 189,-10.76 155.18,8.79 C122.79,27.54 113.18,83.21 126.83,152.88 C128.163333,159.78 129.693333,166.64 131.42,173.46 C123.47,175.72 115.78,178.13 108.42,180.7 C42.63,203.59 0.61,239.59 0.61,276.88 C0.61,315.39 45.72,354.02 114.25,377.44 C119.81,379.326667 125.41,381.08 131.05,382.7 C129.223333,390.033333 127.596667,397.426667 126.17,404.88 C113.17,473.34 123.33,527.7 155.63,546.33 C189,565.59 245,545.79 299.52,498.13 C303.83,494.36 308.15,490.36 312.52,486.18 C317.973333,491.44 323.57,496.546667 329.31,501.5 C382.13,546.95 434.31,565.31 466.57,546.62 C499.9,527.33 510.73,468.93 496.67,397.89 C495.603333,392.463333 494.36,386.926667 492.94,381.28 C496.88,380.12 500.733333,378.916667 504.5,377.67 C575.74,354.07 622.1,315.91 622.1,276.88 C622.1,239.45 578.72,203.26 511.6,180.15 L511.57,180.15 Z M496.12,353.47 C492.72,354.6 489.24,355.68 485.68,356.74 C476.994116,329.810999 466.479663,303.506491 454.21,278.01 C466.012017,252.853481 476.117913,226.935616 484.46,200.43 C490.81,202.27 496.99,204.21 502.93,206.26 C560.44,226.05 595.52,255.32 595.52,277.88 C595.52,301.88 557.63,333.09 496.12,353.47 Z M470.6,404.05 C476.82,435.46 477.7,463.86 473.6,486.05 C469.9,506 462.46,519.3 453.26,524.63 C433.67,535.96 391.79,521.23 346.62,482.36 C341.44,477.9 336.23,473.15 330.99,468.11 C349.821952,447.260679 367.224855,425.16377 383.08,401.97 C411.401406,399.570481 439.524365,395.226909 467.25,388.97 C468.516667,394.09 469.64,399.09 470.62,403.97 L470.6,404.05 Z M212.48,522.69 C193.34,529.45 178.1,529.64 168.89,524.33 C149.29,513.02 141.14,469.33 152.26,410.83 C153.593333,403.916667 155.103333,397.04 156.79,390.2 C184.40099,396.128411 212.381615,400.181008 240.54,402.33 C256.858921,425.442849 274.68074,447.457054 293.89,468.23 C290.03,471.97 286.083333,475.606667 282.05,479.14 C257.94,500.22 233.77,515.14 212.48,522.69 Z M122.84,353.32 C92.53,342.96 67.51,329.5 50.35,314.82 C34.94,301.62 27.16,288.51 27.16,277.88 C27.16,255.25 60.9,226.38 117.16,206.77 C124.226667,204.31 131.356667,202.066667 138.55,200.04 C146.90662,226.83876 157.02534,253.055899 168.84,278.52 C156.878239,304.349202 146.635936,330.940438 138.18,358.12 C133.02,356.646667 127.906667,355.046667 122.84,353.32 Z M152.89,148.78 C141.21,89.09 148.96,44.06 168.48,32.78 C189.27,20.78 235.24,37.9 283.7,80.93 C286.8,83.68 289.91,86.56 293.02,89.53 C273.948028,110.176216 256.265915,132.064219 240.09,155.05 C212.197318,157.551326 184.495976,161.85701 157.16,167.94 C155.566667,161.593333 154.143333,155.21 152.89,148.79 L152.89,148.78 Z M421,214.97 C414.926667,204.476667 408.63,194.116667 402.11,183.89 C421.94,186.4 440.93,189.72 458.77,193.8 C453.045041,211.960131 446.406586,229.819545 438.88,247.31 C433.14,236.41 427.18,225.63 421,214.97 Z M311.64,108.5 C324.563456,122.589923 336.768924,137.321925 348.21,152.64 C323.736667,151.486667 299.253333,151.486667 274.76,152.64 C286.83,136.72 299.2,121.92 311.64,108.51 L311.64,108.5 Z M201.64,215.15 C195.54,225.73 189.69,236.443333 184.09,247.29 C176.36,228.96 169.75,210.93 164.35,193.52 C182.08,189.52 200.99,186.31 220.69,183.84 C214.076667,194.133333 207.72,204.57 201.62,215.15 L201.64,215.15 Z M221.25,373.8 C202.02152,371.712561 182.912996,368.638508 164,364.59 C169.49,346.88 176.25,328.46 184.15,309.73 C189.77,320.59 195.64,331.31 201.76,341.89 C207.986667,352.683333 214.476667,363.32 221.23,373.8 L221.25,373.8 Z M312.39,449.13 C299.79,435.59 287.24,420.59 275,404.38 C286.9,404.853333 299.02,405.09 311.36,405.09 C324.026667,405.09 336.53,404.81 348.87,404.25 C337.479145,419.824584 325.296454,434.804287 312.37,449.13 L312.39,449.13 Z M439.08,308.78 C446.996587,326.624852 453.979359,344.869513 460,363.44 C440.852846,367.748296 421.492927,371.049496 402,373.33 C408.566667,362.91 414.926667,352.366667 421.08,341.7 C427.333333,330.86 433.333333,319.886667 439.08,308.78 Z M398.08,328.44 C388.666667,344.786667 378.73,360.82 368.27,376.54 C349.83,377.86 330.78,378.54 311.36,378.54 C291.94,378.54 273.21,377.94 255.09,376.76 C244.363333,361.093333 234.233333,345.036667 224.7,328.59 C215.166667,312.143333 206.33,295.45 198.19,278.51 C206.37,261.49 215.18,244.79 224.62,228.41 C234.046667,212.036667 244.09,196.036667 254.75,180.41 C273.24,179.01 292.18,178.28 311.34,178.28 C330.5,178.28 349.56,179.02 368.03,180.42 C378.57,196 388.57,211.936667 398.03,228.23 C407.49,244.523333 416.42,261.146667 424.82,278.1 C416.52,295.18 407.616667,311.946667 398.11,328.4 L398.08,328.44 Z M452.85,31.98 C473.66,43.98 481.75,92.38 468.68,155.85 C467.82,159.976667 466.886667,164.093333 465.88,168.2 C438.503585,161.993714 410.74617,157.607448 382.79,155.07 C366.769794,132.063559 349.22018,110.160785 330.26,89.51 C334.926667,85.0166667 339.69,80.6466667 344.55,76.4 C390.43,36.47 433.31,20.71 452.85,31.98 Z" id="Combined-Shape"></path>
            <path d="M311.34,221.38 C333.787655,221.38 354.024969,234.902141 362.615314,255.64107 C371.20566,276.379998 366.457315,300.251538 350.584426,316.124426 C334.711538,331.997315 310.839998,336.74566 290.10107,328.155314 C269.362141,319.564969 255.84,299.327655 255.84,276.88 C255.837347,262.159672 261.6838,248.041488 272.092644,237.632644 C282.501488,227.2238 296.619672,221.377347 311.34,221.38" id="Path"></path>
        </g>
        <g id="me" transform="translate(374.000000, 0.000000)">
            <path d="M58.66,262.2 C58.66,262.2 53.91,275.25 42.66,277.03 C31.41,278.81 24.87,281.77 24.87,281.77 L51.55,298.96 L65.78,297.18 C65.78,297.18 67.56,278.8 73.49,274.65 C79.42,270.5 58.66,262.2 58.66,262.2 Z" id="Path" fill="#E0BDA7"></path>
            <path d="M251.34,262.2 C251.34,262.2 256.09,275.25 267.34,277.03 C278.59,278.81 285.13,281.77 285.13,281.77 L258.45,298.96 L244.22,297.18 C244.22,297.18 242.44,278.8 236.51,274.65 C230.58,270.5 251.34,262.2 251.34,262.2 Z" id="Path" fill="#E0BDA7"></path>
            <path d="M120.476198,145.440739 C120.476198,145.440739 114.39,150.74 112.02,157.86 C112.02,157.86 99.02,162.01 91.86,173.27 C91.86,173.27 82.96,182.76 81.78,187.5 C80.6,192.24 67,220.7 67,220.7 C67,220.7 47.7726366,264.35 47.4785721,267.31 C47.4785721,267.31 67.3224176,268.4 74.1585721,285.1 C74.1585721,285.1 78.270287,280.9 84.19,266.95 C90.109713,253 104.35,220.7 104.35,220.7 C104.35,220.7 109.09,202.92 113.24,199.95 C117.39,196.98 123.91,183.35 129.84,186.95 C135.77,190.55 174.9,186.35 174.9,186.35 C174.9,186.35 198,196.99 198.58,204.1 C199.16,211.21 203.32,211.81 203.91,217.74 C204.5,223.67 225.161397,270.3 225.161397,270.3 C225.161397,270.3 230.05851,280.673319 231.24851,283.673319 C231.24851,283.673319 245.025872,265.600739 260.81014,268.560739 C260.81014,268.560739 258.367196,260.68 254.630959,254 C250.894723,247.32 227.63,191.03 227.63,191.03 C227.63,191.03 225.26,182.73 222.89,180.36 C220.52,177.99 202.13,159.01 195.61,159.01 C195.61,159.01 192.06,150.12 187.91,148.93 L120.476198,145.440739 Z" id="Path" fill="#3F3D56"></path>
            <g id="Path" transform="translate(151.688939, 55.140170) rotate(-1.000000) translate(-151.688939, -55.140170) ">
                <use fill="#F2CC6C" xlink:href="#path-2"></use>
                <use stroke="#F2CC6C" stroke-width="2" fill="url(#linearGradient-1)" xlink:href="#path-2"></use>
            </g>
            <g id="Accessories/Shoe/Flat-Sneaker" transform="translate(40.911856, 270.384388) scale(-1, 1) rotate(-22.000000) translate(-40.911856, -270.384388) translate(6.150189, 247.373928)" fill="#F4F6F6">
                <path d="M3.18911669,28.9045368 C1.82806622,32.4935745 1.14754098,35.1659027 1.14754098,36.9215214 C1.14754098,40.0321902 2.2206116,43.9348109 3.07043148,45.5136422 C4.09542654,46.1496928 65.6186994,45.9300928 66.9069817,45.6634143 C68.2366654,44.192144 69.4280421,37.641525 63.9924197,36.9750566 C60.3686714,36.5307444 57.3583621,36.129566 54.9614919,35.7715214 L24.7411728,22.2702832 C24.236923,22.0450044 23.6455232,22.2711551 23.4202444,22.7754049 C23.4161797,22.7845031 23.4122512,22.7936615 23.4084602,22.8028771 L21.4168019,27.6444993 C18.0621588,29.21305 15.3361629,29.9973253 13.2388144,29.9973253 C11.4834108,29.9973253 9.03902619,29.2654425 5.90566046,27.8016767 L5.90565988,27.801678 C4.90490545,27.3341711 3.71464448,27.7664536 3.2471376,28.7672081 C3.22609731,28.8122473 3.20674357,28.8580554 3.18911669,28.9045368 Z" id="shoe"></path>
            </g>
            <g id="Accessories/Shoe/Flat-Sneaker" transform="translate(268.115560, 269.635873) rotate(-24.000000) translate(-268.115560, -269.635873) translate(233.353893, 246.625413)" fill="#F4F6F6">
                <path d="M3.18911669,28.9045368 C1.82806622,32.4935745 1.14754098,35.1659027 1.14754098,36.9215214 C1.14754098,40.0321902 2.2206116,43.9348109 3.07043148,45.5136422 C4.09542654,46.1496928 65.6186994,45.9300928 66.9069817,45.6634143 C68.2366654,44.192144 69.4280421,37.641525 63.9924197,36.9750566 C60.3686714,36.5307444 57.3583621,36.129566 54.9614919,35.7715214 L24.7411728,22.2702832 C24.236923,22.0450044 23.6455232,22.2711551 23.4202444,22.7754049 C23.4161797,22.7845031 23.4122512,22.7936615 23.4084602,22.8028771 L21.4168019,27.6444993 C18.0621588,29.21305 15.3361629,29.9973253 13.2388144,29.9973253 C11.4834108,29.9973253 9.03902619,29.2654425 5.90566046,27.8016767 L5.90565988,27.801678 C4.90490545,27.3341711 3.71464448,27.7664536 3.2471376,28.7672081 C3.22609731,28.8122473 3.20674357,28.8580554 3.18911669,28.9045368 Z" id="shoe"></path>
            </g>
            <path d="M142.769443,49.2380469 C142.169443,52.0980469 141.282776,53.8913802 140.109443,54.6180469 C138.669443,55.5180469 137.129564,55.8928739 135.469564,56.2328739 C131.93483,57.1179679 127.723886,57.8271858 127.369443,62.5580469 L127.369443,73.6362978 L178.649292,74.4926444 L177.849443,56.6380469 C177.667213,56.3264162 177.41359,56.0625107 177.109443,55.8680469 C176.626593,55.6776332 176.100199,55.6256865 175.589443,55.7180469 C172.401152,55.9253065 169.467089,55.5617345 166.684977,53.9907435 C166.248784,53.7652229 165.613184,53.0972573 165.289443,52.7280469 C165.023104,52.3010329 164.766877,51.1376996 164.520762,49.2380469 L142.769443,49.2380469 Z" id="Path" fill="#E0BDA7"></path>
            <path d="M142.769443,49.2380469 C142.169443,52.0980469 141.282776,53.8913802 140.109443,54.6180469 C138.669443,55.5180469 137.129564,55.8928739 135.469564,56.2328739 C131.93483,57.1179679 127.723886,57.8271858 127.369443,62.5580469 L127.369443,73.6362978 L178.649292,74.4926444 L177.849443,56.6380469 C177.667213,56.3264162 177.41359,56.0625107 177.109443,55.8680469 C176.626593,55.6776332 176.100199,55.6256865 175.589443,55.7180469 C172.401152,55.9253065 169.467089,55.5617345 166.684977,53.9907435 C166.248784,53.7652229 165.613184,53.0972573 165.289443,52.7280469 C165.023104,52.3010329 164.766877,51.1376996 164.520762,49.2380469 L142.769443,49.2380469 Z" id="Path" fill="#000000" opacity="0.049502"></path>
            <path d="M132.85,56.74 C130.534354,56.0484334 128.136155,55.6717177 125.72,55.62 C120,55.48 113.88,57.45 110.58,62.12 C108.331823,65.4908615 107.508579,69.6142754 108.29,73.59 C109.086344,77.528489 110.87635,81.198002 113.49,84.25 C115.000171,85.8543045 116.340615,87.6102865 117.49,89.49 C119.07,92.49 119.12,96.08 119.55,99.49 C120.55,107.61 124.01,115.24 125.38,123.31 C126.75,131.38 125.57,140.73 119.2,145.86 C118.13,146.72 116.83,147.63 116.74,149 C116.6,151.19 119.45,152.12 121.64,152.33 C128.19,152.95 134.91,153.56 141.27,151.87 C143.9,151.17 146.442869,150.69 149.122869,150.19 C155.922869,148.92 162.76,150.92 169.57,152.17 C174.498154,152.9836 179.485145,153.388312 184.48,153.38 C185.642511,153.483921 186.813637,153.330275 187.91,152.93 C189.024627,152.492831 189.728312,151.384729 189.65,150.19 C189.427808,149.436142 189.022411,148.749029 188.47,148.19 C185.03,143.94 183.98,138.29 183.04,132.9 L179.89,114.79 C178.2,105.11 176.63,94.59 181.21,85.9 C184.5,79.65 190.57,75.25 194.04,69.1 C195.249604,67.2411514 195.795796,65.0281909 195.59,62.82 C195.07,59.73 192.28,57.52 189.42,56.23 C183.917044,53.7614122 177.669265,53.5318726 172,55.59 C171.013916,60.4748535 171.462391,58.8219997 170.273757,62.82 C169.842106,64.4194402 169.105247,65.9203231 168.103757,67.24 C167.035994,68.4273248 165.731296,69.377745 164.273757,70.03 C161.117312,71.5733028 154.271585,72.3787971 152.608667,72.3787971 C150.945749,72.3787971 145.425295,71.8731934 144.123291,71.5339355 C142.821287,71.1946777 138.781738,69.1 137.577637,67.4976334 C136.915359,67.0013052 136.453652,66.142784 135.982717,65.49 C135.484424,64.6589264 135.11046,63.7593919 134.872717,62.82 C134.062952,60.3740956 134.062952,60.3740956 132.85,56.74 Z" id="Path" fill="#F2CC6C"></path>
            <path d="M126.84,171.49 C126.84,171.49 124.47,196.80368 139.29,201.096454 C154.11,205.389229 141.07,180.083604 141.07,180.083604 L136.32,172.448424 L126.84,171.49 Z" id="Path" fill="#E0BDA7"></path>
            <path d="M177.23,171.49 C177.23,171.49 179.6,196.80368 164.78,201.096454 C149.96,205.389229 163,180.083604 163,180.083604 L167.75,172.448424 L177.23,171.49 Z" id="Path" fill="#E0BDA7"></path>
            <path d="M113.99,70.2375118 C122.678633,143.121188 127.02295,179.563026 127.02295,179.563026 C127.02295,179.563026 129.734637,172.304631 141.615418,181.810034 C142.902392,181.810034 143.771769,173.519303 142.53015,169.322374 C142.53015,169.322374 138.97,157.957392 138.97,149.869605 C138.97,141.781819 132.44,103.153149 132.44,103.153149 C132.44,103.153149 128.2,59.2396793 113.99,70.2375118 Z" id="Path" fill="#000000" opacity="0.1"></path>
            <path d="M112.61,65.96 L108.038941,72 C108.038941,72 112.02,100.35 112.61,105.09 C113.123335,108.510932 113.922806,111.88276 115,115.17 C115,115.17 115.59,129.4 115.59,134.73 C115.59,140.06 118.59,148.96 118.59,148.96 C119.005777,154.000495 120.012688,158.974634 121.59,163.78 C123.96,170.31 126.34,178.01 126.34,178.01 C126.34,178.01 130.985737,171.272724 141.652549,180.177333 C142.544355,177.327693 142.051805,174.722379 141.652549,171.990956 C141.253293,169.259533 137.6,156.09 137.6,147.78 C137.6,139.47 131.08,99.78 131.08,99.78 C131.08,99.78 126.84,54.69 112.61,65.96 Z" id="Path" fill="#F2CC6C"></path>
            <path d="M177.000612,181.772728 C177.000612,181.772728 172.189541,173.76623 161.000612,183.34 C159.759964,176.605112 164.440379,164.006519 164.440379,162.958736 C164.440379,161.910953 168.730612,136.89415 168.730612,136.89415 C168.730612,136.89415 171.126278,111.839326 171.59,103.980361 C171.747809,101.305876 173.293844,92.111646 174.241829,84.3935478 C175.189813,76.6754497 183.800612,70.3379079 190.170612,75.8673854 C190.270612,75.9613043 185.880612,111.263085 177.000612,181.772728 Z" id="Path" fill="#000000" opacity="0.1"></path>
            <path d="M195.65,64.12 C195.65,64.12 199.14,84.31 191.43,109.8 C191.04307,117.664972 190.25307,125.371639 189.06,132.92 C187.270394,144.242542 185.317933,149.011561 184.32,157.23 C183.654712,162.708959 181.534983,170.515357 177.960814,180.649193 C177.960814,180.649193 172.252322,173.307244 161.582322,181.607244 C161.582322,181.607244 161.696662,177.631108 163,173.256975 C164.303338,168.882842 166.56,159.04 166.56,157.86 C166.56,156.68 170.71,129.4 170.71,129.4 C170.71,129.4 172.49,102.72 174.27,93.82 C176.05,84.92 174.86,58.25 174.86,58.25 C174.86,58.25 181.79,60.2066667 195.65,64.12 Z" id="Path" fill="#F2CC6C"></path>
            <path d="M132.746747,26.0349267 C131.652787,25.9486122 131.177695,26.1472381 130.561358,26.6242004 C129.945021,27.1011627 129.565092,28.3404449 129.570048,29.3601594 C129.576773,30.7607191 130.07926,32.1996958 130.460054,33.5343876 C130.797877,34.7187364 131.451887,36.5082843 131.75915,37.0995836 C132.066413,37.6908829 132.960896,39.0829933 133.414698,39.293063 C133.645661,39.3999785 133.911782,39.4871988 134.119646,39.442543 C134.463274,41.2857124 134.756693,43.3845758 135.458744,45.1373272 C136.271303,47.1657191 137.745349,49.0340753 139.258613,50.5850488 C142.448391,53.8542477 146.530794,57.2408203 151.223642,57.9127296 C153.384094,58.222047 155.612365,57.6725346 157.594986,56.8410142 C161.645461,55.1423863 165.111826,52.0714985 167.665602,48.5333095 C168.796373,46.9666296 169.663372,45.2447958 170.132727,43.3685864 C170.300364,42.698493 170.556572,41.4954937 170.90135,39.7595885 C171.169857,39.771532 171.403753,39.7038679 171.603039,39.5565962 C172.465015,38.9195964 172.935263,37.9258601 173.329862,36.9078437 C173.855922,35.5507243 174.396049,33.951866 174.641013,32.7336155 C174.885977,31.5153649 175.060062,30.206411 175.060062,28.978535 C175.060062,27.7506591 174.4087,26.3165148 173.298112,26.0349267 C172.742438,25.8940361 172.254684,26.0349267 171.824319,26.176426 C171.824319,20.1839322 172.720413,14.0149181 169.297586,8.70126703 C161.968771,-2.6760873 142.940259,-2.92862811 135.204669,8.13526998 C133.550527,10.5010669 132.455505,13.3821334 132.257569,16.2714776 C132.035422,19.5132257 132.607922,22.8034373 132.746747,26.0349267 Z" id="Path" fill="#E0BDA7"></path>
        </g>
    </g>
</svg>