<svg height="96" viewBox="0 0 96 96" width="96" xmlns="http://www.w3.org/2000/svg"><g fill="#191a23" fill-rule="evenodd" transform="translate(35.913043 50)"><path d="m.18931676 29.1323031 5.74950561-3.4794932c1.10918756 1.9666286 2.11820124 3.630589 4.53847463 3.630589 2.31998 0 3.7826383-.9075281 3.7826383-4.4374658v-24.005963h7.060353v24.105779c0 7.3126956-4.2864895 10.6412124-10.5403231 10.6412124-5.64801987 0-8.92656891-2.9251976-10.59076768-6.4552548"/><path d="m25.1552794 28.3757516 5.7487901-3.3285168c1.5133418 2.4714335 3.4802087 4.2868472 6.9598211 4.2868472 2.9254362 0 4.7909366-1.4626584 4.7909366-3.4799701 0-2.4207505-1.9163029-3.2781915-5.1440496-4.6898087l-1.7646112-.7570287c-5.0939626-2.168169-8.4730434-4.8914682-8.4730434-10.64085465 0-5.29538381 4.0345043-9.33012675 10.3387825-9.33012675 4.488507 0 7.7161342 1.56354799 10.0357565 5.64861629l-5.4971628 3.53005719c-1.2104346-2.16840757-2.5212817-3.02561003-4.5384743-3.02561003-2.0677565 0-3.3790808 1.31120482-3.3790808 3.02561003 0 2.11820102 1.3113243 2.97576122 4.3369343 4.28708552l1.7649689.7564323c6.0014907 2.5722037 9.3805712 5.1943753 9.3805712 11.0947379 0 6.3548424-4.9927153 9.8343356-11.7000743 9.8343356-6.5561441 0-10.7925466-3.1266188-12.8599454-7.2118063"/></g></svg>