<svg height="96" viewBox="0 0 96 96" width="96" xmlns="http://www.w3.org/2000/svg"><path d="m73.1265039 47.5415011c0-3.3923183-2.4441245-6.2228934-5.6636968-6.8275049l7.70121-22.7139962h-36.402749l7.7128822 22.7600477c-3.1075207.6916212-5.4385327 3.4687171-5.4385327 6.7814534 0 2.4878417 1.3146959 4.6730592 3.2851479 5.9009575-.9477694 1.411892-2.0716804 2.7405943-3.3596367 3.9555472-2.0423943 1.9269472-4.3180171 3.3882862-6.771267 4.3496376-2.4708641-1.5521687-3.5154053-4.4790911-2.4305425-7.0291128l.0848875-.1994858c.0530547-.1247846.1063216-.2499938.1593764-.3752029 2.7138547-.9462839 4.6673292-3.529624 4.6673292-6.5622314 0-3.8316114-3.1172827-6.9486819-6.9488941-6.9486819-3.8316115 0-6.948682 3.1170705-6.948682 6.9486819 0 1.9339504.7947596 3.6851804 2.0740149 4.9461848-.2319552.49447-.4757947.9970042-.7264252 1.5118472-1.1697503 2.4025296-2.4954815 5.1257219-2.9969546 8.1496284-.9959431 6.0055813.6103414 10.8063963 4.5230204 13.5181288 2.3743046 1.645545 4.785323 2.2928125 7.2116211 2.2926002 4.5688597-.0002122 9.1903497-2.2953591 13.7106114-4.5406346 3.2556494-1.6168954 6.6218649-3.2889678 9.9471221-4.1089814 1.237236-.3051707 2.5103369-.48874 3.8581388-.6831325 2.6726842-.3856017 5.4366226-.7841487 7.8847793-2.2019828 2.8375783-1.6436351 4.7802297-4.4007824 5.3294521-7.5643289.4715503-2.7157646-.0961352-5.4355615-1.4802265-7.7423804.6453575-1.0543033 1.0180138-2.2928125 1.0180138-3.6170582zm-2.7278611 0c0 2.3274042-1.8934166 4.221033-4.221033 4.221033-2.327192 0-4.2208208-1.8936288-4.2208208-4.221033 0-2.3274041 1.8936288-4.2208207 4.2208208-4.2208207 2.3276164 0 4.221033 1.8934166 4.221033 4.2208207zm.9600781-26.81364-6.8005532 20.0574406c-.294772.0706689-.5821163.1598008-.8611841.2669713l-6.7180001-13.7046691-6.7375241 13.6236015c-.2911643-.1003795-.5908173-.1829326-.8981102-.2440517l-6.7772091-19.9992926zm-23.3744213 22.5928193c2.3274042 0 4.2208208 1.8934166 4.2208208 4.2208207 0 2.3274042-1.8934166 4.221033-4.2208208 4.221033-2.3271919 0-4.2208208-1.8936288-4.2208208-4.221033 0-2.3274041 1.8936289-4.2208207 4.2208208-4.2208207zm-18.2622813.0401093c2.3276163 0 4.221033 1.8934166 4.221033 4.2208208s-1.8934167 4.221033-4.221033 4.221033c-2.327192 0-4.2208208-1.8936288-4.2208208-4.221033s1.8936288-4.2208208 4.2208208-4.2208208zm41.1789465 15.0734808c-.4106435 2.3658158-1.8719825 4.4326152-4.0090264 5.6702755-1.9920984 1.153834-4.3793482 1.4982652-6.9068748 1.8626449-1.3539563.1952414-2.7541763.3972737-4.1219268.7347017-3.6166337.8917436-7.1197303 2.631726-10.5073799 4.3144093-6.7793314 3.3672766-12.6342374 6.2750993-18.1546864 2.4490056-4.0438303-2.8025622-3.8570777-7.9881299-3.3859518-10.8297404.4365342-2.6325749 1.6168954-5.0571753 2.7584206-7.4019814.1975758-.4057624.3894216-.8032483.5776598-1.1981876.5661999.2264375 1.1682647.3807206 1.7957959.4507528-1.1618982 3.8350069.6655183 8.004683 4.5009497 9.975135l.5248172.2697302.5560134-.1980002c3.032183-1.0797695 5.8260442-2.8127487 8.3043361-5.1507638 1.6020401-1.5112105 2.9787038-3.1832828 4.1106792-4.9699533.3395501.0511447.6869524.0780965 1.040509.0780965 3.8316114 0 6.9488942-3.1170705 6.9488942-6.9488942 0-2.060645-.9025668-3.9137401-2.332073-5.1874776l4.3670396-8.830851 4.4113933 8.9991405c-1.323609 1.2660977-2.1506259 3.0472505-2.1506259 5.0191881 0 3.8318237 3.1170706 6.9488942 6.948682 6.9488942 1.4721622 0 2.8377905-.4613638 3.9625504-1.2453002.7809654 1.5986446 1.0719174 3.3974116.7608046 5.1891754z" fill="#fff"/></svg>