<svg height="96" viewBox="0 0 96 96" width="96" xmlns="http://www.w3.org/2000/svg"><path d="m67.3320424 38.6109357c-.6224257-.2142392-1.2673861-.4169441-1.9314635-.6086486.1091489-.4454595.2093264-.8851517.2983971-1.3173681 1.462081-7.0971267.5061213-12.8146215-2.758196-14.6970641-3.1300709-1.8050131-8.2490627.0770022-13.4189981 4.5762386-.4971504.4326435-.9956892.8907053-1.4940139 1.3707676-.332039-.3176208-.6635435-.6245616-.9941936-.9181526-5.4182435-4.8108765-10.8491962-6.8382455-14.1103096-4.9503562-3.1270804 1.8102463-4.0531361 7.1852361-2.7370497 13.9112357.127091.6496595.2756487 1.3130961.4436439 1.9876398-.7686338.2181907-1.5106746.4507993-2.2206757.6982531-6.3523092 2.2146948-10.4091833 5.6856685-10.4091833 9.2859761 0 3.7184278 4.3550575 7.448069 10.9714811 9.7095417.5221412.1784616 1.0639335.3472043 1.6222797.5074031-.1812382.7295454-.3388738 1.444459-.471198 2.1417511-1.2548905 6.6092681-.2749011 11.8572734 2.8438489 13.6560924 3.2213841 1.8576653 8.6277727-.0517976 13.8922254-4.6535611.4160897-.3637582.8336745-.7495168 1.2520069-1.1538584.5422197.5221411 1.0835845 1.0163009 1.6220662 1.4798093 5.0992343 4.3880585 10.1355638 6.1599642 13.2514301 4.3561259 3.2181802-1.8630057 4.2640648-7.5006146 2.9062195-14.3596857-.103702-.5238501-.224385-1.0590211-.359913-1.6036966.3796711-.1122464.7524002-.2281233 1.115838-.3485927 6.8784022-2.278988 11.3537152-5.96324 11.3537152-9.731329 0-3.613337-4.1877033-7.1076998-10.6679576-9.3385213zm-1.4918779 16.636858c-.3280871.1086145-.6647183.2135984-1.0077572.3153778-.7593422-2.4039429-1.7841872-4.9601817-3.0383302-7.6012188 1.1967919-2.5781328 2.1820141-5.1016907 2.9201034-7.4900411.613775.1776071 1.2095009.3649329 1.7835467.5626182 5.5522762 1.9113851 8.9390923 4.7373985 8.9390923 6.9149272 0 2.319465-3.6576586 5.3304546-9.596655 7.2983367zm-2.4642847 4.8830723c.600425 3.0329904.6861847 5.7751664.2884646 7.9188399-.3573499 1.9262304-1.0760018 3.2104905-1.9645711 3.7248356-1.8908799 1.0944781-5.9345105-.3281939-10.2954422-4.080904-.499927-.4301873-1.0034852-.8895304-1.5086454-1.3756807 1.6906313-1.8490144 3.3803013-3.9985615 5.0293877-6.385844 2.9005592-.2573857 5.64092-.6781749 8.1260302-1.2526477.1223918.4937327.2311134.9779602.3247762 1.4514009zm-24.9205236 11.4545342c-1.8474124.6524362-3.3187849.671126-4.2082086.1582762-1.8925885-1.0915945-2.6793781-5.3052499-1.6061531-10.9574904.1229259-.64731.2692408-1.3122414.4378767-1.9919116 2.4578767.5435011 5.1781589.9345996 8.0856601 1.1703054 1.6601935 2.3360191 3.3986708 4.4832166 5.1506047 6.3633096-.3827683.369525-.7640416.7213219-1.1431786 1.0528263-2.327902 2.0348452-4.6607167 3.4785565-6.7166012 4.2046845zm-8.6548998-16.351811c-2.9256571-.9999607-5.3417752-2.2996001-6.9979103-3.7177866-1.4881399-1.2744347-2.2394723-2.5396847-2.2394723-3.5663456 0-2.184791 3.2572686-4.9715024 8.6898232-6.865586.6591646-.2298319 1.3491942-.4464206 2.0652828-.6498731.7507983 2.4422839 1.7357004 4.9957457 2.9242687 7.5778298-1.2039473 2.620425-2.2028402 5.2145777-2.9610077 7.6854834-.5105001-.1467419-1.0050872-.3011735-1.4809844-.4637219zm2.9012001-19.7482387c-1.1275859-5.7626708-.3787099-10.1098252 1.5057618-11.2006721 2.0072909-1.1620821 6.445972.4948006 11.124204 4.6487552.2990377.2655028.5992503.5433943.9003172.8308977-1.7432832 1.8718695-3.4658473 4.0029406-5.1113025 6.3251822-2.8218484.2615513-5.5230136.6816993-8.006522 1.2443174-.1561405-.628086-.2944454-1.2451718-.4124585-1.8484804zm25.881289 6.3907569c-.5936964-1.0254859-1.2031996-2.0267283-1.8245571-3.0006301 1.9143755.2420069 3.7485446.5632589 5.4710021.9563868-.517122 1.6573098-1.1616546 3.3901267-1.9203563 5.1665177-.5442485-1.0332822-1.1198962-2.0751083-1.7260887-3.1222744zm-10.5543234-10.2799563c1.1822672 1.2808427 2.366243 2.7108839 3.5307816 4.2624625-1.1735098-.0554287-2.361544-.0842645-3.5594035-.0842645-1.1865391 0-2.3658157.028195-3.5320631.0826626 1.1657133-1.5371608 2.3599418-2.9652796 3.560685-4.2608606zm-10.6219272 10.2976849c-.5930559 1.0283695-1.1580236 2.0645353-1.6937284 3.1026235-.7464195-1.7701967-1.3849719-3.5109168-1.9065792-5.1917225 1.7118843-.3830887 3.5374029-.6963307 5.4396033-.9337453-.6301152.982873-1.2446378 1.9914846-1.8392957 3.0226308zm1.8940837 15.3169266c-1.9653187-.2192587-3.8182847-.5163738-5.5297418-.8888897.5299376-1.7108163 1.1825875-3.4887023 1.9448133-5.2970264.5370932 1.0373407 1.1043037 2.0739338 1.7009908 3.104546h.0001067c.6077943 1.0499428 1.2374823 2.0784188 1.883831 3.0813701zm8.7987584 7.2727045c-1.2148409-1.3107464-2.4265845-2.760652-3.6100264-4.3202407 1.1488388.0450692 2.3201056.068138 3.5104896.068138 1.2229575 0 2.4319243-.0275543 3.6218811-.0805268-1.1683836 1.5876771-2.3480872 3.0398255-3.5223443 4.3326295zm12.2339542-13.5507881c.8019551 1.8278681 1.4779941 3.5964628 2.0147668 5.2781229-1.739652.3968655-3.6179293.7165158-5.5969184.9540373.622853-.9870385 1.2376957-2.0054757 1.8418587-3.0530689.611212-1.0598749 1.1915587-2.121352 1.7402929-3.1790913zm-3.9605414 1.8985692c-.9379103 1.6262311-1.9008119 3.1786641-2.8783448 4.6440563-1.7804496.1273043-3.619852.1928791-5.4946048.1928791-1.8671702 0-3.6833976-.0579921-5.4323409-.1715196-1.0169421-1.4846154-2.0007762-3.0416407-2.932706-4.6514252h.0002136c-.9294734-1.6054053-1.7849349-3.2243745-2.5600834-4.8342652.7749349-1.6136292 1.6281536-3.2344137 2.552287-4.8369356l-.0002135.0003204c.9265897-1.6067939 1.9017732-3.1562366 2.9093166-4.6315606 1.7844009-.1348874 3.6141916-.205268 5.4634198-.205268h.0001068c1.8575583 0 3.6896984.0709146 5.4735652.2069768.9921644 1.4645373 1.9607264 3.0089604 2.8909474 4.6159679.9407944 1.6250566 1.8050133 3.2350542 2.5865695 4.8140805-.7792066 1.6061529-1.6415032 3.2323845-2.5781325 4.8566932zm5.2875214-28.6228245c2.0092134 1.1586645 2.7905559 5.8315564 1.5281897 11.95916-.0805268.3909919-.171199.7892461-.2696682 1.1928402-2.4892755-.574366-5.1923632-1.0017764-8.0224345-1.2672792-1.6486594-2.3477667-3.3571261-4.4821485-5.0720009-6.3299882.4610522-.443537.9214636-.8664618 1.3799525-1.2655704 4.4296033-3.8549168 8.5696741-5.3769122 10.4559614-4.2891624zm-13.660471 18.3832383c2.9589783 0 5.357795 2.3987098 5.357795 5.357795 0 2.9589783-2.3988167 5.3577954-5.357795 5.3577954-2.9589785 0-5.3577951-2.3988171-5.3577951-5.3577954 0-2.9590852 2.3988166-5.357795 5.3577951-5.357795z" fill="#fff"/></svg>