<?xml version="1.0" encoding="UTF-8"?>
<svg width="96px" height="96px" viewBox="0 0 96 96" version="1.1" xmlns="http://www.w3.org/2000/svg" xmlns:xlink="http://www.w3.org/1999/xlink">
    <!-- Generator: Sketch 52.4 (67378) - http://www.bohemiancoding.com/sketch -->
    <title>scaleway</title>
    <desc>Created with Sketch.</desc>
    <g id="scaleway" stroke="none" stroke-width="1" fill="none" fill-rule="evenodd">
        <g transform="translate(22.615385, 18.000000)" fill="#FFFFFF">
            <path d="M23.1307692,46.1384615 L32.9794872,46.1384615 C35.1412145,45.8772763 36.7996024,44.0954029 36.9051282,41.9205128 L36.9051282,27.7128205 C36.9051282,25.8265557 35.3760084,24.2974359 33.4897436,24.2974359 C31.6034788,24.2974359 30.074359,25.8265557 30.074359,27.7128205 L30.074359,36.7410256 C30.074359,38.1571404 28.9263712,39.3051282 27.5102564,39.3051282 L23.0461538,39.3051282 C22.1327285,39.3057306 21.2576063,39.6721954 20.6163103,40.3226458 C19.9750144,40.9730963 19.6209895,41.8533245 19.6333333,42.7666667 C19.6863354,44.6555208 21.2412403,46.1545676 23.1307692,46.1384615 Z" id="Path"></path>
            <path d="M27.5717949,13.7025641 L17.7205128,13.7025641 C15.5587855,13.9637493 13.9003976,15.7456227 13.7948718,17.9205128 L13.7948718,32.125641 C13.7948718,34.0119059 15.3239916,35.5410256 17.2102564,35.5410256 C19.0965212,35.5410256 20.625641,34.0119059 20.625641,32.125641 L20.625641,23.1 C20.625641,21.6838853 21.7736288,20.5358974 23.1897436,20.5358974 L27.6512821,20.5358974 C28.5647074,20.5352951 29.4398296,20.1688302 30.0811255,19.5183798 C30.7224215,18.8679294 31.0764464,17.9877011 31.0641026,17.074359 C31.0124869,15.1869181 29.4598844,13.6878929 27.5717949,13.7025641 Z" id="Path"></path>
            <path d="M29.2307692,6.83076923 C37.2428801,6.83924604 43.7362616,13.3314805 43.7461538,21.3435897 L43.7461538,49.2564103 C43.41356,51.1903792 41.8589599,52.6815475 39.9128205,52.9333333 L21.3512821,52.9333333 C13.3318243,52.9333333 6.83076923,46.4322783 6.83076923,38.4128205 L6.83076923,11.3205128 C6.83076923,8.84089591 8.84089591,6.83076923 11.3205128,6.83076923 L29.2307692,6.83076923 Z M29.2307692,-9.10951324e-16 L11.3205128,-9.10951324e-16 C5.06836623,-1.29378481e-15 7.65667131e-16,5.06836623 0,11.3205128 L0,38.4153846 C1.44410197e-15,50.2073721 9.55929459,59.7666667 21.3512821,59.7666667 L40.2564103,59.7666667 C45.6673608,59.323327 50.0012925,55.1002182 50.5846154,49.7025641 L50.5846154,21.3435897 C50.584616,15.6811403 48.334515,10.2507598 44.3295969,6.24776535 C40.3246789,2.24477087 34.893218,-0.00272102328 29.2307692,-9.10951324e-16 Z" id="Shape" fill-rule="nonzero"></path>
        </g>
    </g>
</svg>