<svg height="96" viewBox="0 0 96 96" width="96" xmlns="http://www.w3.org/2000/svg"><g fill="none" fill-rule="evenodd" transform="translate(18 21.5)"><path d="m29.9999531.00004688-16.9089844 1.7878125-13.09101558 17.57320312 29.99999998 34.9347656 30-34.9347656-13.0907812-17.57320312z" fill="#fdb300"/><path d="m0 19.3611562 30 34.9345313-17.8485938-34.9345313z" fill="#eb6c00"/><path d="m47.8484297 19.3611562-17.8483594 34.9345313 29.9997656-34.9345313z" fill="#eb6c00"/><path d="m12.1514766 19.3611562 17.8485937 34.9345313 17.8485938-34.9345313z" fill="#fdad00"/><path d="m13.0909687 1.78785937-.9396093 17.57320313 17.8485937-19.36101562z" fill="#fdd231"/><path d="m47.8484297 19.3611563-.939375-17.57343755-16.9089844-1.78757813z" fill="#fdd231"/><path d="m47.8486406 19.3611563h12.1511719l-13.0907813-17.57343755z" fill="#fdad00"/><path d="m0 19.3611563h12.1514062l.9396094-17.57343755z" fill="#fdad00"/><path d="m29.9999531.00004688-17.8485937 19.36101562h35.6971875z" fill="#feeeb7"/></g></svg>