<?xml version="1.0" encoding="UTF-8"?>
<svg width="96px" height="96px" viewBox="0 0 96 96" version="1.1" xmlns="http://www.w3.org/2000/svg" xmlns:xlink="http://www.w3.org/1999/xlink">
    <!-- Generator: Sketch 52.4 (67378) - http://www.bohemiancoding.com/sketch -->
    <title>sketch</title>
    <desc>Created with Sketch.</desc>
    <g id="sketch" stroke="none" stroke-width="1" fill="none" fill-rule="evenodd">
        <g id="Group" transform="translate(18.000000, 20.812500)">
            <polygon id="Path" fill="#FDB300" points="29.9999531 4.6875e-05 13.0909687 1.78785938 -4.6875e-05 19.3610625 29.9999531 54.2958281 59.9999531 19.3610625 46.9091719 1.78785938"></polygon>
            <polygon id="Path" fill="#EB6C00" points="0 19.3611562 30 54.2956875 12.1514062 19.3611562"></polygon>
            <polygon id="Path" fill="#EB6C00" points="47.8484297 19.3611562 30.0000703 54.2956875 59.9998359 19.3611562"></polygon>
            <polygon id="Path" fill="#FDAD00" points="12.1514766 19.3611562 30.0000703 54.2956875 47.8486641 19.3611562"></polygon>
            <polygon id="Path" fill="#FDD231" points="13.0909687 1.78785937 12.1513594 19.3610625 29.9999531 4.6875e-05"></polygon>
            <polygon id="Path" fill="#FDD231" points="47.8484297 19.3611563 46.9090547 1.78771875 30.0000703 0.000140625"></polygon>
            <polygon id="Path" fill="#FDAD00" points="47.8486406 19.3611563 59.9998125 19.3611563 46.9090312 1.78771875"></polygon>
            <polygon id="Path" fill="#FDAD00" points="0 19.3611563 12.1514062 19.3611563 13.0910156 1.78771875"></polygon>
            <polygon id="Path" fill="#FEEEB7" points="29.9999531 4.6875e-05 12.1513594 19.3610625 47.8485469 19.3610625"></polygon>
        </g>
    </g>
</svg>