<svg height="96" viewBox="0 0 96 96" width="96" xmlns="http://www.w3.org/2000/svg"><g fill="#fff" fill-rule="evenodd" transform="translate(32.782609 50)"><path d="m28.2981517 28.3831948 5.7487901-3.3285169c1.5133418 2.4714336 3.4802087 4.2868472 6.9598211 4.2868472 2.9254362 0 4.7909367-1.4626583 4.7909367-3.4799701 0-2.4207504-1.916303-3.2781915-5.1440497-4.6898087l-1.7646112-.7570287c-5.0939626-2.1681689-8.4730434-4.8914682-8.4730434-10.64085462 0-5.2953838 4.0345044-9.33012675 10.3387825-9.33012675 4.488507 0 7.7161342 1.56354799 10.0357565 5.6486163l-5.4971628 3.53005718c-1.2104346-2.16840756-2.5212817-3.02561002-4.5384743-3.02561002-2.0677565 0-3.3790808 1.31120482-3.3790808 3.02561002 0 2.11820109 1.3113243 2.97576129 4.3369343 4.28708549l1.7649689.7564323c6.0014907 2.5722038 9.3805712 5.1943754 9.3805712 11.0947379 0 6.3548424-4.9927152 9.8343356-11.7000743 9.8343356-6.5561441 0-10.7925466-3.1266188-12.8599454-7.2118062"/><path d="m.26327219.88497525v6.2935346h9.97624311v28.41589485l7.0601011.0005963v-28.41649115h10.0056598v-6.2935346z"/></g></svg>